<?xml version="1.0" encoding="UTF-8"?>
<svg xmlns:xlink="http://www.w3.org/1999/xlink" xmlns="http://www.w3.org/2000/svg" width="1168" height="509" viewBox="0 0 1168 509"><rect x="0" y="0" width="1168" height="509" fill="#ffffff"></rect><text x="584" y="40" font-family="PingFang SC, Helvetica Neue, Arial, sans-serif" font-size="20" font-weight="bold" fill="#0f172a" text-anchor="middle" dominant-baseline="middle">One microphone, two AssemblyAI sockets, one gate</text><g transform="translate(28.2 60.0)"><path d="M107.8607574536664 189.65 Q221 323.625 245.25 323.625 L269.5 323.625" fill="none" stroke="#64748b" stroke-width="1.6" stroke-linecap="round" stroke-linejoin="round"></path><path d="M266.28219953718923 327.29484407753614 L274.5 323.625 L266.28219953718923 319.95515592246386 Z" fill="#64748b" stroke="#64748b" stroke-linejoin="round"></path><path d="M176 168.5 Q221 168.5 241 168.5 L261 168.5" fill="none" stroke="#64748b" stroke-width="1.6" stroke-linecap="round" stroke-linejoin="round"></path><path d="M257.78219953718923 172.16984407753614 L266 168.5 L257.78219953718923 164.83015592246386 Z" fill="#64748b" stroke="#64748b" stroke-linejoin="round"></path><path d="M112.51645672490858 147.35 Q221 45.45 247.75 45.45 L274.5 45.45" fill="none" stroke="#64748b" stroke-width="1.6" stroke-linecap="round" stroke-linejoin="round"></path><path d="M271.28219953718923 49.119844077536136 L279.5 45.45 L271.28219953718923 41.78015592246387 Z" fill="#64748b" stroke="#64748b" stroke-linejoin="round"></path><path d="M427.5 329.667654028436 Q540.9 338.625 591.4750153852244 294.02119236697087 L642.050030770449 249.41738473394173" fill="none" stroke="#64748b" stroke-width="1.6" stroke-linecap="round" stroke-linejoin="round"></path><path d="M642.0640995290923 254.29814260971497 L645.8 246.11016070502853 L637.2093009228555 248.79342166251084 Z" fill="#64748b" stroke="#64748b" stroke-linejoin="round"></path><rect x="512.1999999999999" y="328.625" width="57.39999999999999" height="20" rx="3" fill="#ffffff" stroke="none"></rect><text x="540.9" y="338.625" font-family="PingFang SC, Helvetica Neue, Arial, sans-serif" font-size="12" font-weight="normal" fill="#475569" text-anchor="middle" dominant-baseline="middle">tool call</text><path d="M436 168.5 Q540.9 168.5 590.8499999999999 168.5 L640.8 168.5" fill="none" stroke="#64748b" stroke-width="1.6" stroke-linecap="round" stroke-linejoin="round"></path><path d="M637.5821995371891 172.16984407753614 L645.8 168.5 L637.5821995371891 164.83015592246386 Z" fill="#64748b" stroke="#64748b" stroke-linejoin="round"></path><rect x="481" y="158.5" width="119.80000000000001" height="20" rx="3" fill="#ffffff" stroke="none"></rect><text x="540.9" y="168.5" font-family="PingFang SC, Helvetica Neue, Arial, sans-serif" font-size="12" font-weight="normal" fill="#475569" text-anchor="middle" dominant-baseline="middle">words + confidence</text><path d="M422.5 45.45 Q540.9 45.45 591.2423097331523 77.56312189043234 L641.5846194663047 109.67624378086468" fill="none" stroke="#64748b" stroke-width="1.6" stroke-linecap="round" stroke-linejoin="round" stroke-dasharray="6 5"></path><path d="M636.898147658383 111.03968698299924 L645.8 112.36521513737688 L640.8453899013272 104.85177126854218 Z" fill="#64748b" stroke="#64748b" stroke-linejoin="round"></path><rect x="514.18" y="35.45" width="53.440000000000005" height="20" rx="3" fill="#ffffff" stroke="none"></rect><text x="540.9" y="45.45" font-family="PingFang SC, Helvetica Neue, Arial, sans-serif" font-size="12" font-weight="normal" fill="#475569" text-anchor="middle" dominant-baseline="middle">F0 / dB</text><path d="M821.8 153.01851851851853 Q887.6999999999999 141.425 918.6499999999999 141.425 L949.5999999999999 141.425" fill="none" stroke="#64748b" stroke-width="1.6" stroke-linecap="round" stroke-linejoin="round"></path><path d="M946.3821995371891 145.09484407753615 L954.5999999999999 141.425 L946.3821995371891 137.75515592246387 Z" fill="#64748b" stroke="#64748b" stroke-linejoin="round"></path><rect x="866.8" y="131.425" width="41.800000000000004" height="20" rx="3" fill="#ffffff" stroke="none"></rect><text x="887.6999999999999" y="141.425" font-family="PingFang SC, Helvetica Neue, Arial, sans-serif" font-size="12" font-weight="normal" fill="#475569" text-anchor="middle" dominant-baseline="middle">≥ 55%</text><path d="M821.8 200.90675763482784 Q887.6999999999999 225.175 918.3953190422326 239.87825114374272 L949.0906380844654 254.58150228748542" fill="none" stroke="#64748b" stroke-width="1.6" stroke-linecap="round" stroke-linejoin="round"></path><path d="M944.6032107072373 256.50113530084917 L953.5999999999999 256.7415150454864 L947.7739747181782 249.8816732531726 Z" fill="#64748b" stroke="#64748b" stroke-linejoin="round"></path><rect x="866.8" y="215.175" width="41.800000000000004" height="20" rx="3" fill="#ffffff" stroke="none"></rect><text x="887.6999999999999" y="225.175" font-family="PingFang SC, Helvetica Neue, Arial, sans-serif" font-size="12" font-weight="normal" fill="#475569" text-anchor="middle" dominant-baseline="middle">&lt; 55%</text><path d="M953.5999999999999 301.7075752274318 Q887.6999999999999 308.625 810.75 308.625 Q733.8 308.625 637.3499999999999 308.625 Q540.9 308.625 486.6922372404282 312.90681380407364 L432.48447448085636 317.1886276081472" fill="none" stroke="#64748b" stroke-width="1.6" stroke-linecap="round" stroke-linejoin="round" stroke-dasharray="6 5"></path><path d="M435.40330633828955 313.27679735110314 L427.5 317.582345971564 L435.98126033997045 320.5936950123834 Z" fill="#64748b" stroke="#64748b" stroke-linejoin="round"></path><rect x="687.4" y="298.625" width="92.79999999999998" height="20" rx="3" fill="#ffffff" stroke="none"></rect><text x="733.8" y="308.625" font-family="PingFang SC, Helvetica Neue, Arial, sans-serif" font-size="12" font-weight="normal" fill="#475569" text-anchor="middle" dominant-baseline="middle">agent re-asks</text><path d="M12 147.35 H168 Q176 147.35 176 155.35 V181.64999999999998 Q176 189.64999999999998 168 189.64999999999998 H12 Q4 189.64999999999998 4 181.64999999999998 V155.35 Q4 147.35 12 147.35 Z" fill="#f1f5f9" stroke="#64748b" stroke-width="1.6" stroke-linejoin="round"></path><text x="90" y="168.5" font-family="PingFang SC, Helvetica Neue, Arial, sans-serif" font-size="14" font-weight="bold" fill="#1e293b" text-anchor="middle" dominant-baseline="middle">Patient on the phone</text><path d="M282.5 261.875 H419.5 Q427.5 261.875 427.5 269.875 V377.375 Q427.5 385.375 419.5 385.375 H282.5 Q274.5 385.375 274.5 377.375 V269.875 Q274.5 261.875 282.5 261.875 Z" fill="#dbe8fb" stroke="#3b7dd8" stroke-width="1.6" stroke-linejoin="round"></path><text x="351" y="283.025" font-family="PingFang SC, Helvetica Neue, Arial, sans-serif" font-size="14" font-weight="normal" fill="#14356b" text-anchor="middle" dominant-baseline="middle">Voice Agent API</text><text x="351" y="303.325" font-family="PingFang SC, Helvetica Neue, Arial, sans-serif" font-size="14" font-weight="normal" fill="#14356b" text-anchor="middle" dominant-baseline="middle">24 kHz</text><text x="351" y="323.625" font-family="PingFang SC, Helvetica Neue, Arial, sans-serif" font-size="14" font-weight="normal" fill="#14356b" text-anchor="middle" dominant-baseline="middle">turn-taking, LLM,</text><text x="351" y="343.925" font-family="PingFang SC, Helvetica Neue, Arial, sans-serif" font-size="14" font-weight="normal" fill="#14356b" text-anchor="middle" dominant-baseline="middle">voice,</text><text x="351" y="364.225" font-family="PingFang SC, Helvetica Neue, Arial, sans-serif" font-size="14" font-weight="normal" fill="#14356b" text-anchor="middle" dominant-baseline="middle">tool calls</text><path d="M274 116.9 H428 Q436 116.9 436 124.9 V212.10000000000002 Q436 220.10000000000002 428 220.10000000000002 H274 Q266 220.10000000000002 266 212.10000000000002 V124.9 Q266 116.9 274 116.9 Z" fill="#dbe8fb" stroke="#3b7dd8" stroke-width="1.6" stroke-linejoin="round"></path><text x="351" y="138.05" font-family="PingFang SC, Helvetica Neue, Arial, sans-serif" font-size="14" font-weight="normal" fill="#14356b" text-anchor="middle" dominant-baseline="middle">Streaming STT v3</text><text x="351" y="158.35000000000002" font-family="PingFang SC, Helvetica Neue, Arial, sans-serif" font-size="14" font-weight="normal" fill="#14356b" text-anchor="middle" dominant-baseline="middle">16 kHz</text><text x="351" y="178.65000000000003" font-family="PingFang SC, Helvetica Neue, Arial, sans-serif" font-size="14" font-weight="normal" fill="#14356b" text-anchor="middle" dominant-baseline="middle">word timings and</text><text x="351" y="198.95000000000005" font-family="PingFang SC, Helvetica Neue, Arial, sans-serif" font-size="14" font-weight="normal" fill="#14356b" text-anchor="middle" dominant-baseline="middle">per-word confidence</text><path d="M287.5 4 H414.5 Q422.5 4 422.5 12 V78.9 Q422.5 86.9 414.5 86.9 H287.5 Q279.5 86.9 279.5 78.9 V12 Q279.5 4 287.5 4 Z" fill="#ffffff" stroke="#cbd5e1" stroke-width="1.6" stroke-linejoin="round"></path><text x="351" y="25.15" font-family="PingFang SC, Helvetica Neue, Arial, sans-serif" font-size="14" font-weight="normal" fill="#475569" text-anchor="middle" dominant-baseline="middle">In-browser DSP</text><text x="351" y="45.45" font-family="PingFang SC, Helvetica Neue, Arial, sans-serif" font-size="14" font-weight="normal" fill="#475569" text-anchor="middle" dominant-baseline="middle">pitch and energy</text><text x="351" y="65.75" font-family="PingFang SC, Helvetica Neue, Arial, sans-serif" font-size="14" font-weight="normal" fill="#475569" text-anchor="middle" dominant-baseline="middle">never uploaded</text><path d="M653.8 76.3 H813.8 Q821.8 76.3 821.8 84.3 V252.7 Q821.8 260.7 813.8 260.7 H653.8 Q645.8 260.7 645.8 252.7 V84.3 Q645.8 76.3 653.8 76.3 Z" fill="#e6e2f0" stroke="#7b6ba8" stroke-width="1.6" stroke-linejoin="round"></path><text x="733.8" y="97.45" font-family="PingFang SC, Helvetica Neue, Arial, sans-serif" font-size="14" font-weight="bold" fill="#372e52" text-anchor="middle" dominant-baseline="middle">Vocal-certainty gate</text><text x="733.8" y="117.75" font-family="PingFang SC, Helvetica Neue, Arial, sans-serif" font-size="14" font-weight="bold" fill="#372e52" text-anchor="middle" dominant-baseline="middle">dead air, hedging,</text><text x="733.8" y="138.05" font-family="PingFang SC, Helvetica Neue, Arial, sans-serif" font-size="14" font-weight="bold" fill="#372e52" text-anchor="middle" dominant-baseline="middle">fillers,</text><text x="733.8" y="158.35000000000002" font-family="PingFang SC, Helvetica Neue, Arial, sans-serif" font-size="14" font-weight="bold" fill="#372e52" text-anchor="middle" dominant-baseline="middle">word confidence,</text><text x="733.8" y="178.65000000000003" font-family="PingFang SC, Helvetica Neue, Arial, sans-serif" font-size="14" font-weight="bold" fill="#372e52" text-anchor="middle" dominant-baseline="middle">arousal</text><text x="733.8" y="198.95000000000005" font-family="PingFang SC, Helvetica Neue, Arial, sans-serif" font-size="14" font-weight="bold" fill="#372e52" text-anchor="middle" dominant-baseline="middle">scored against this</text><text x="733.8" y="219.25000000000006" font-family="PingFang SC, Helvetica Neue, Arial, sans-serif" font-size="14" font-weight="bold" fill="#372e52" text-anchor="middle" dominant-baseline="middle">patient's</text><text x="733.8" y="239.55000000000007" font-family="PingFang SC, Helvetica Neue, Arial, sans-serif" font-size="14" font-weight="bold" fill="#372e52" text-anchor="middle" dominant-baseline="middle">own baseline</text><path d="M962.5999999999999 110.12500000000001 H1098.6 Q1106.6 110.12500000000001 1106.6 118.12500000000001 V164.72500000000002 Q1106.6 172.72500000000002 1098.6 172.72500000000002 H962.5999999999999 Q954.5999999999999 172.72500000000002 954.5999999999999 164.72500000000002 V118.12500000000001 Q954.5999999999999 110.12500000000001 962.5999999999999 110.12500000000001 Z" fill="#d6efec" stroke="#2a9d8f" stroke-width="1.6" stroke-linejoin="round"></path><text x="1030.6" y="131.275" font-family="PingFang SC, Helvetica Neue, Arial, sans-serif" font-size="14" font-weight="bold" fill="#11453f" text-anchor="middle" dominant-baseline="middle">RECORDED</text><text x="1030.6" y="151.57500000000002" font-family="PingFang SC, Helvetica Neue, Arial, sans-serif" font-size="14" font-weight="bold" fill="#11453f" text-anchor="middle" dominant-baseline="middle">with its certainty</text><path d="M961.5999999999999 231.875 H1099.6 Q1107.6 231.875 1107.6 239.875 V347.375 Q1107.6 355.375 1099.6 355.375 H961.5999999999999 Q953.5999999999999 355.375 953.5999999999999 347.375 V239.875 Q953.5999999999999 231.875 961.5999999999999 231.875 Z" fill="#fadfe3" stroke="#d1495b" stroke-width="1.6" stroke-linejoin="round"></path><text x="1030.6" y="253.025" font-family="PingFang SC, Helvetica Neue, Arial, sans-serif" font-size="14" font-weight="bold" fill="#6d1f2b" text-anchor="middle" dominant-baseline="middle">REFUSED</text><text x="1030.6" y="273.325" font-family="PingFang SC, Helvetica Neue, Arial, sans-serif" font-size="14" font-weight="bold" fill="#6d1f2b" text-anchor="middle" dominant-baseline="middle">plus the follow-up</text><text x="1030.6" y="293.625" font-family="PingFang SC, Helvetica Neue, Arial, sans-serif" font-size="14" font-weight="bold" fill="#6d1f2b" text-anchor="middle" dominant-baseline="middle">question</text><text x="1030.6" y="313.925" font-family="PingFang SC, Helvetica Neue, Arial, sans-serif" font-size="14" font-weight="bold" fill="#6d1f2b" text-anchor="middle" dominant-baseline="middle">that recovers the</text><text x="1030.6" y="334.225" font-family="PingFang SC, Helvetica Neue, Arial, sans-serif" font-size="14" font-weight="bold" fill="#6d1f2b" text-anchor="middle" dominant-baseline="middle">fact</text></g><text x="584" y="469.375" font-family="PingFang SC, Helvetica Neue, Arial, sans-serif" font-size="12.5" font-weight="normal" fill="#64748b" text-anchor="middle" dominant-baseline="middle">The Voice Agent API owns the conversation. Streaming STT v3 owns the measurement. Neither can write to the record without the other.</text></svg>